<svg xmlns="http://www.w3.org/2000/svg" width="1024" height="1024" viewBox="0 0 1024 1024">
<g>
<path d="M 907.31 780.98 C902.49,781.66 771.61,781.95 510.81,781.85 C129.01,781.71 113.35,781.59 106.00,778.81 C105.18,778.50 101.18,777.19 97.11,775.91 C74.55,768.77 53.66,747.96 45.49,724.50 C40.41,709.88 40.67,720.47 40.30,517.51 C39.99,349.07 40.13,327.27 41.54,317.03 C42.42,310.72 43.49,305.09 43.93,304.52 C44.36,303.96 44.99,302.09 45.31,300.37 C46.09,296.23 52.53,282.97 55.50,279.36 C56.05,278.70 58.28,275.98 60.45,273.33 C72.35,258.80 90.97,247.77 110.50,243.69 C118.04,242.12 897.59,241.48 909.00,243.04 C918.99,244.40 921.65,245.19 932.96,250.12 C950.54,257.79 966.07,273.08 974.99,291.50 C978.60,298.96 980.60,305.74 982.11,315.62 C982.68,319.32 982.93,399.12 982.74,517.12 L 982.44 712.50 L 979.86 720.00 C975.97,731.30 970.52,741.91 965.52,747.93 C953.50,762.39 942.74,770.02 924.50,777.01 C920.42,778.57 914.30,779.98 907.31,780.98 ZM 265.00 704.87 C274.08,706.34 305.64,706.16 316.09,704.56 C361.17,697.69 400.55,676.40 431.02,642.42 C450.77,620.40 465.13,593.29 472.82,563.50 C476.37,549.74 477.99,534.56 477.97,515.00 C477.95,472.35 463.93,433.32 435.94,397.99 C418.61,376.10 390.46,354.31 366.67,344.37 C353.49,338.87 348.37,336.89 345.00,336.01 C343.08,335.50 338.80,334.38 335.50,333.51 C322.82,330.19 312.88,328.88 295.92,328.30 C276.16,327.64 264.22,328.73 248.50,332.66 C243.00,334.03 236.93,335.52 235.00,335.98 C224.32,338.50 200.18,349.85 187.50,358.31 C168.16,371.21 146.85,392.02 134.94,409.61 C117.78,434.97 107.24,461.87 102.88,491.50 C101.22,502.80 101.22,532.92 102.89,543.50 C109.50,585.43 127.08,620.67 156.00,649.99 C168.70,662.87 179.16,671.03 195.00,680.40 C216.07,692.88 237.62,700.41 265.00,704.87 ZM 710.50 704.88 C717.65,706.01 752.58,705.52 762.50,704.15 C786.75,700.80 816.62,689.16 839.24,674.26 C855.72,663.41 873.84,646.33 884.63,631.50 C887.03,628.20 889.35,625.05 889.78,624.50 C892.63,620.90 900.52,607.01 904.26,599.00 C911.09,584.37 912.00,582.11 912.00,579.67 C912.00,578.42 912.37,576.97 912.83,576.45 C913.29,575.93 914.46,572.58 915.43,569.00 C916.41,565.42 917.60,561.47 918.09,560.22 C921.86,550.59 923.66,509.25 921.11,491.00 C919.78,481.49 916.67,467.26 915.10,463.50 C914.64,462.40 913.06,457.75 911.59,453.16 C909.30,446.01 906.24,439.32 896.43,420.00 C895.46,418.08 894.38,416.27 894.04,416.00 C893.71,415.73 891.28,412.45 888.65,408.73 C886.02,405.00 883.09,401.17 882.14,400.23 C881.20,399.28 879.17,396.80 877.64,394.72 C870.29,384.75 851.08,367.79 835.50,357.52 C823.49,349.60 799.86,338.85 787.50,335.67 C786.40,335.39 782.36,334.23 778.52,333.09 C762.28,328.26 732.08,326.63 710.91,329.45 C680.99,333.43 654.43,343.36 629.80,359.77 C619.36,366.72 612.42,372.60 600.33,384.70 C592.62,392.43 576.00,412.72 576.00,414.41 C576.00,414.68 574.84,416.62 573.42,418.71 C571.12,422.10 562.75,438.77 558.72,448.00 C541.90,486.49 541.69,544.17 558.22,585.50 C561.19,592.93 570.63,611.77 574.29,617.59 C585.23,634.94 608.33,659.40 624.58,670.84 C650.09,688.78 677.64,699.70 710.50,704.88 Z" fill="rgb(43,109,171)"/>
<path d="M 265.00 704.87 C237.62,700.41 216.07,692.88 195.00,680.40 C179.16,671.03 168.70,662.87 156.00,649.99 C127.08,620.67 109.50,585.43 102.89,543.50 C101.22,532.92 101.22,502.80 102.88,491.50 C107.24,461.87 117.78,434.97 134.94,409.61 C146.85,392.02 168.16,371.21 187.50,358.31 C200.18,349.85 224.32,338.50 235.00,335.98 C236.93,335.52 243.00,334.03 248.50,332.66 C264.22,328.73 276.16,327.64 295.92,328.30 C312.88,328.88 322.82,330.19 335.50,333.51 C338.80,334.38 343.08,335.50 345.00,336.01 C348.37,336.89 353.49,338.87 366.67,344.37 C390.46,354.31 418.61,376.10 435.94,397.99 C463.93,433.32 477.95,472.35 477.97,515.00 C477.99,534.56 476.37,549.74 472.82,563.50 C465.13,593.29 450.77,620.40 431.02,642.42 C400.55,676.40 361.17,697.69 316.09,704.56 C305.64,706.16 274.08,706.34 265.00,704.87 ZM 262.00 467.00 L 262.00 570.00 L 331.00 570.00 L 331.00 552.00 L 284.00 552.00 L 284.00 539.61 C284.00,529.23 284.26,527.12 285.58,526.61 C286.45,526.27 295.45,526.00 305.58,526.00 L 324.00 526.00 L 324.00 518.20 C324.00,513.47 323.53,509.93 322.80,509.20 C321.95,508.35 316.09,508.00 302.80,508.00 L 284.00 508.00 L 284.00 485.04 L 329.50 484.50 L 329.81 479.00 C329.98,475.98 329.85,472.04 329.52,470.25 L 328.91 467.00 ZM 376.00 570.91 C393.58,572.13 406.57,568.44 414.36,560.02 C419.60,554.36 421.27,549.83 421.38,541.00 C421.49,531.99 419.91,527.01 415.33,521.95 C410.46,516.55 405.78,514.33 380.74,505.52 C372.08,502.47 369.00,499.58 369.00,494.50 C369.00,487.39 375.99,483.45 387.30,484.17 C392.40,484.49 395.47,485.43 401.39,488.48 C405.56,490.62 409.11,492.18 409.30,491.94 C409.49,491.70 411.78,488.39 414.39,484.60 C418.97,477.95 419.08,477.63 417.32,475.96 C413.73,472.55 406.04,469.11 397.03,466.90 C388.64,464.84 387.05,464.75 378.35,465.76 C363.52,467.50 354.57,473.05 349.33,483.76 C347.05,488.42 346.80,489.95 347.20,496.77 C347.72,505.69 349.66,510.45 354.86,515.57 C359.63,520.27 367.20,524.06 380.99,528.63 C394.07,532.97 399.00,536.61 399.00,541.93 C399.00,548.40 395.16,551.49 385.79,552.59 C377.97,553.51 370.34,551.56 361.88,546.47 C357.82,544.03 354.17,542.03 353.77,542.02 C353.36,542.01 350.78,545.40 348.03,549.56 L 343.02 557.11 L 345.76 559.66 C352.06,565.51 364.40,570.10 376.00,570.91 ZM 191.00 531.69 L 191.00 570.07 L 202.25 569.78 L 213.50 569.50 L 214.50 529.50 L 222.18 516.00 C232.63,497.62 242.86,479.83 246.64,473.43 C248.37,470.51 249.53,467.87 249.23,467.56 C248.92,467.25 243.44,467.00 237.06,467.00 L 225.46 467.00 L 220.65 476.25 C218.01,481.34 212.93,491.24 209.36,498.25 C205.80,505.26 202.57,510.97 202.19,510.93 C201.81,510.89 196.67,500.99 190.77,488.93 L 180.03 467.00 L 168.02 467.00 C161.41,467.00 156.00,467.35 156.00,467.78 C156.00,468.21 156.60,469.44 157.34,470.53 C158.08,471.61 160.04,474.98 161.69,478.00 C163.34,481.02 166.93,487.55 169.68,492.50 C172.42,497.45 176.82,505.55 179.46,510.50 C182.10,515.45 185.78,522.24 187.63,525.60 Z" fill="rgb(133,186,73)"/>
<path d="M 710.50 704.88 C677.64,699.70 650.09,688.78 624.58,670.84 C608.33,659.40 585.23,634.94 574.29,617.59 C570.63,611.77 561.19,592.93 558.22,585.50 C541.69,544.17 541.90,486.49 558.72,448.00 C562.75,438.77 571.12,422.10 573.42,418.71 C574.84,416.62 576.00,414.68 576.00,414.41 C576.00,412.72 592.62,392.43 600.33,384.70 C612.42,372.60 619.36,366.72 629.80,359.77 C654.43,343.36 680.99,333.43 710.91,329.45 C732.08,326.63 762.28,328.26 778.52,333.09 C782.36,334.23 786.40,335.39 787.50,335.67 C799.86,338.85 823.49,349.60 835.50,357.52 C851.08,367.79 870.29,384.75 877.64,394.72 C879.17,396.80 881.20,399.28 882.14,400.23 C883.09,401.17 886.02,405.00 888.65,408.73 C891.28,412.45 893.71,415.73 894.04,416.00 C894.38,416.27 895.46,418.08 896.43,420.00 C906.24,439.32 909.30,446.01 911.59,453.16 C913.06,457.75 914.64,462.40 915.10,463.50 C916.67,467.26 919.78,481.49 921.11,491.00 C923.66,509.25 921.86,550.59 918.09,560.22 C917.60,561.47 916.41,565.42 915.43,569.00 C914.46,572.58 913.29,575.93 912.83,576.45 C912.37,576.97 912.00,578.42 912.00,579.67 C912.00,582.11 911.09,584.37 904.26,599.00 C900.52,607.01 892.63,620.90 889.78,624.50 C889.35,625.05 887.03,628.20 884.63,631.50 C873.84,646.33 855.72,663.41 839.24,674.26 C816.62,689.16 786.75,700.80 762.50,704.15 C752.58,705.52 717.65,706.01 710.50,704.88 ZM 629.29 626.75 C632.12,629.64 634.47,632.00 634.53,632.00 C634.77,632.00 672.41,593.98 683.29,582.73 L 695.62 570.00 L 717.00 570.00 L 717.00 545.23 L 724.77 537.11 C729.05,532.65 733.07,529.00 733.71,529.00 C735.78,529.00 745.86,540.10 746.52,543.10 C747.45,547.31 754.48,557.42 758.94,560.96 C761.05,562.63 765.46,565.32 768.75,566.95 C773.78,569.45 779.51,574.81 805.09,600.97 L 835.45 632.03 L 840.97 626.51 L 846.48 621.00 L 822.74 597.24 C809.68,584.17 799.00,573.01 799.00,572.43 C799.00,571.85 801.36,570.78 804.25,570.05 C820.12,566.05 831.07,556.38 836.42,541.63 C842.81,524.00 841.91,506.76 833.68,489.00 C829.01,478.95 813.82,467.90 802.53,466.35 C800.04,466.01 798.00,465.23 798.00,464.62 C798.00,464.01 808.91,452.60 822.24,439.26 L 846.48 415.00 L 841.24 409.76 L 835.99 404.52 L 804.25 436.14 C780.49,459.80 771.26,468.35 767.57,470.13 C760.05,473.75 752.36,481.34 748.53,488.91 C745.49,494.94 736.54,505.00 734.22,505.00 C733.71,505.00 729.63,501.19 725.15,496.53 L 717.00 488.07 L 717.00 467.00 L 696.50 467.02 L 665.70 435.85 L 634.89 404.68 L 629.95 409.55 C627.23,412.23 625.00,414.89 625.00,415.46 C625.00,416.03 640.75,432.24 660.00,451.48 C690.59,482.04 695.00,486.83 695.00,489.48 C694.99,501.10 695.98,528.42 696.55,532.75 C697.54,540.12 695.73,539.55 691.82,531.25 C688.60,524.42 682.58,514.09 670.69,495.00 C667.09,489.23 661.79,480.56 658.90,475.75 L 653.66 467.00 L 631.00 467.00 L 631.00 570.00 L 652.22 570.00 L 651.85 534.59 C651.65,515.12 651.83,499.40 652.26,499.66 C652.68,499.92 653.97,502.02 655.12,504.32 C657.43,508.96 671.18,532.35 680.18,546.96 C683.38,552.16 686.00,556.93 686.00,557.57 C686.00,558.20 672.08,572.85 655.07,590.11 L 624.14 621.50 ZM 803.51 550.00 C801.20,551.42 797.88,552.25 793.29,552.53 C786.20,552.97 783.10,552.35 778.33,549.54 C774.96,547.55 768.00,538.47 768.00,536.07 C768.00,535.15 767.44,533.84 766.75,533.15 C765.87,532.27 765.51,527.87 765.54,518.20 C765.58,505.21 765.73,504.20 768.42,498.72 C771.67,492.12 778.52,485.55 783.12,484.63 C788.04,483.64 796.38,483.89 800.10,485.13 C805.06,486.78 810.88,492.70 813.75,499.00 C815.81,503.53 816.34,506.55 816.76,516.07 C817.20,526.32 817.00,528.37 814.99,534.07 C812.39,541.45 808.42,546.96 803.51,550.00 ZM 721.43 519.96 C719.82,521.60 718.16,522.96 717.75,522.97 C717.34,522.99 717.00,520.30 717.00,517.00 C717.00,513.70 717.37,511.00 717.81,511.00 C718.26,511.00 719.91,512.35 721.49,513.99 L 724.35 516.98 Z" fill="rgb(214,76,74)"/>
<path d="M 0.00 512.00 L 0.00 0.00 L 512.00 0.00 L 1024.00 0.00 L 1024.00 512.00 L 1024.00 1024.00 L 512.00 1024.00 L 0.00 1024.00 L 0.00 512.00 ZM 907.31 780.98 C914.30,779.98 920.42,778.57 924.50,777.01 C942.74,770.02 953.50,762.39 965.52,747.93 C970.52,741.91 975.97,731.30 979.86,720.00 L 982.44 712.50 L 982.74 517.12 C982.93,399.12 982.68,319.32 982.11,315.62 C980.60,305.74 978.60,298.96 974.99,291.50 C966.07,273.08 950.54,257.79 932.96,250.12 C921.65,245.19 918.99,244.40 909.00,243.04 C897.59,241.48 118.04,242.12 110.50,243.69 C90.97,247.77 72.35,258.80 60.45,273.33 C58.28,275.98 56.05,278.70 55.50,279.36 C52.53,282.97 46.09,296.23 45.31,300.37 C44.99,302.09 44.36,303.96 43.93,304.52 C43.49,305.09 42.42,310.72 41.54,317.03 C40.13,327.27 39.99,349.07 40.30,517.51 C40.67,720.47 40.41,709.88 45.49,724.50 C53.66,747.96 74.55,768.77 97.11,775.91 C101.18,777.19 105.18,778.50 106.00,778.81 C113.35,781.59 129.01,781.71 510.81,781.85 C771.61,781.95 902.49,781.66 907.31,780.98 ZM 629.29 626.75 L 624.14 621.50 L 655.07 590.11 C672.08,572.85 686.00,558.20 686.00,557.57 C686.00,556.93 683.38,552.16 680.18,546.96 C671.18,532.35 657.43,508.96 655.12,504.32 C653.97,502.02 652.68,499.92 652.26,499.66 C651.83,499.40 651.65,515.12 651.85,534.59 L 652.22 570.00 L 641.61 570.00 L 631.00 570.00 L 631.00 518.50 L 631.00 467.00 L 642.33 467.00 L 653.66 467.00 L 658.90 475.75 C661.79,480.56 667.09,489.23 670.69,495.00 C682.58,514.09 688.60,524.42 691.82,531.25 C695.73,539.55 697.54,540.12 696.55,532.75 C695.98,528.42 694.99,501.10 695.00,489.48 C695.00,486.83 690.59,482.04 660.00,451.48 C640.75,432.24 625.00,416.03 625.00,415.46 C625.00,414.89 627.23,412.23 629.95,409.55 L 634.89 404.68 L 665.70 435.85 L 696.50 467.02 L 706.75 467.01 L 717.00 467.00 L 717.00 477.53 L 717.00 488.07 L 725.15 496.53 C729.63,501.19 733.71,505.00 734.22,505.00 C736.54,505.00 745.49,494.94 748.53,488.91 C752.36,481.34 760.05,473.75 767.57,470.13 C771.26,468.35 780.49,459.80 804.25,436.14 L 835.99 404.52 L 841.24 409.76 L 846.48 415.00 L 822.24 439.26 C808.91,452.60 798.00,464.01 798.00,464.62 C798.00,465.23 800.04,466.01 802.53,466.35 C813.82,467.90 829.01,478.95 833.68,489.00 C841.91,506.76 842.81,524.00 836.42,541.63 C831.07,556.38 820.12,566.05 804.25,570.05 C801.36,570.78 799.00,571.85 799.00,572.43 C799.00,573.01 809.68,584.17 822.74,597.24 L 846.48 621.00 L 840.97 626.51 L 835.45 632.03 L 805.09 600.97 C779.51,574.81 773.78,569.45 768.75,566.95 C765.46,565.32 761.05,562.63 758.94,560.96 C754.48,557.42 747.45,547.31 746.52,543.10 C745.86,540.10 735.78,529.00 733.71,529.00 C733.07,529.00 729.05,532.65 724.77,537.11 L 717.00 545.23 L 717.00 557.61 L 717.00 570.00 L 706.31 570.00 L 695.62 570.00 L 683.29 582.73 C672.41,593.98 634.77,632.00 634.53,632.00 C634.47,632.00 632.12,629.64 629.29,626.75 ZM 803.51 550.00 C808.42,546.96 812.39,541.45 814.99,534.07 C817.00,528.37 817.20,526.32 816.76,516.07 C816.34,506.55 815.81,503.53 813.75,499.00 C810.88,492.70 805.06,486.78 800.10,485.13 C796.38,483.89 788.04,483.64 783.12,484.63 C778.52,485.55 771.67,492.12 768.42,498.72 C765.73,504.20 765.58,505.21 765.54,518.20 C765.51,527.87 765.87,532.27 766.75,533.15 C767.44,533.84 768.00,535.15 768.00,536.07 C768.00,538.47 774.96,547.55 778.33,549.54 C783.10,552.35 786.20,552.97 793.29,552.53 C797.88,552.25 801.20,551.42 803.51,550.00 ZM 721.43 519.96 L 724.35 516.98 L 721.49 513.99 C719.91,512.35 718.26,511.00 717.81,511.00 C717.37,511.00 717.00,513.70 717.00,517.00 C717.00,520.30 717.34,522.99 717.75,522.97 C718.16,522.96 719.82,521.60 721.43,519.96 ZM 376.00 570.91 C364.40,570.10 352.06,565.51 345.76,559.66 L 343.02 557.11 L 348.03 549.56 C350.78,545.40 353.36,542.01 353.77,542.02 C354.17,542.03 357.82,544.03 361.88,546.47 C370.34,551.56 377.97,553.51 385.79,552.59 C395.16,551.49 399.00,548.40 399.00,541.93 C399.00,536.61 394.07,532.97 380.99,528.63 C367.20,524.06 359.63,520.27 354.86,515.57 C349.66,510.45 347.72,505.69 347.20,496.77 C346.80,489.95 347.05,488.42 349.33,483.76 C354.57,473.05 363.52,467.50 378.35,465.76 C387.05,464.75 388.64,464.84 397.03,466.90 C406.04,469.11 413.73,472.55 417.32,475.96 C419.08,477.63 418.97,477.95 414.39,484.60 C411.78,488.39 409.49,491.70 409.30,491.94 C409.11,492.18 405.56,490.62 401.39,488.48 C395.47,485.43 392.40,484.49 387.30,484.17 C375.99,483.45 369.00,487.39 369.00,494.50 C369.00,499.58 372.08,502.47 380.74,505.52 C405.78,514.33 410.46,516.55 415.33,521.95 C419.91,527.01 421.49,531.99 421.38,541.00 C421.27,549.83 419.60,554.36 414.36,560.02 C406.57,568.44 393.58,572.13 376.00,570.91 ZM 191.00 550.88 L 191.00 531.69 L 187.63 525.60 C185.78,522.24 182.10,515.45 179.46,510.50 C176.82,505.55 172.42,497.45 169.68,492.50 C166.93,487.55 163.34,481.02 161.69,478.00 C160.04,474.98 158.08,471.61 157.34,470.53 C156.60,469.44 156.00,468.21 156.00,467.78 C156.00,467.35 161.41,467.00 168.02,467.00 L 180.03 467.00 L 190.77 488.93 C196.67,500.99 201.81,510.89 202.19,510.93 C202.57,510.97 205.80,505.26 209.36,498.25 C212.93,491.24 218.01,481.34 220.65,476.25 L 225.46 467.00 L 237.06 467.00 C243.44,467.00 248.92,467.25 249.23,467.56 C249.53,467.87 248.37,470.51 246.64,473.43 C242.86,479.83 232.63,497.62 222.18,516.00 L 214.50 529.50 L 214.00 549.50 L 213.50 569.50 L 202.25 569.78 L 191.00 570.07 L 191.00 550.88 ZM 262.00 518.50 L 262.00 467.00 L 295.45 467.00 L 328.91 467.00 L 329.52 470.25 C329.85,472.04 329.98,475.98 329.81,479.00 L 329.50 484.50 L 306.75 484.77 L 284.00 485.04 L 284.00 496.52 L 284.00 508.00 L 302.80 508.00 C316.09,508.00 321.95,508.35 322.80,509.20 C323.53,509.93 324.00,513.47 324.00,518.20 L 324.00 526.00 L 305.58 526.00 C295.45,526.00 286.45,526.27 285.58,526.61 C284.26,527.12 284.00,529.23 284.00,539.61 L 284.00 552.00 L 307.50 552.00 L 331.00 552.00 L 331.00 561.00 L 331.00 570.00 L 296.50 570.00 L 262.00 570.00 L 262.00 518.50 Z" fill="rgb(254,254,254)"/>
</g>
</svg>